<svg width="18" height="18" viewBox="0 0 18 18" fill="none" xmlns="http://www.w3.org/2000/svg">
  <defs>
    <linearGradient id="brandGrad" x1="0%" y1="0%" x2="100%" y2="100%">
      <stop offset="0%" stop-color="#b700ff" />
      <stop offset="100%" stop-color="#6f00ff" />
    </linearGradient>
  </defs>

  <mask id="path-2-outside-1_1413_3" maskUnits="userSpaceOnUse" x="0" y="3" width="18" height="12" fill="black">
    <rect fill="white" y="3" width="18" height="12" />
    <path d="M0.917773 9.01563V8.53125C1.35267 8.53125 1.65605 8.4401 1.82793 8.25781C2.00241 8.07552 2.08965 7.77083 2.08965 7.34375V6.09375C2.08965 5.73437 2.1235 5.42318 2.19121 5.16016C2.26152 4.89714 2.3748 4.67969 2.53105 4.50781C2.6873 4.33594 2.89564 4.20833 3.15605 4.125C3.41647 4.04167 3.73809 4 4.1209 4V4.76562C3.81881 4.76562 3.58053 4.8125 3.40605 4.90625C3.23418 5 3.11178 5.14583 3.03887 5.34375C2.96855 5.53906 2.9334 5.78906 2.9334 6.09375V7.65625C2.9334 7.85937 2.90605 8.04427 2.85137 8.21094C2.79928 8.3776 2.70163 8.52083 2.5584 8.64062C2.41517 8.76042 2.21074 8.85286 1.94512 8.91797C1.6821 8.98307 1.33965 9.01563 0.917773 9.01563ZM4.1209 14C3.73809 14 3.41647 13.9583 3.15605 13.875C2.89564 13.7917 2.6873 13.6641 2.53105 13.4922C2.3748 13.3203 2.26152 13.1029 2.19121 12.8398C2.1235 12.5768 2.08965 12.2656 2.08965 11.9062V10.6562C2.08965 10.2292 2.00241 9.92448 1.82793 9.74219C1.65605 9.5599 1.35267 9.46875 0.917773 9.46875V8.98437C1.33965 8.98437 1.6821 9.01693 1.94512 9.08203C2.21074 9.14714 2.41517 9.23958 2.5584 9.35938C2.70163 9.47917 2.79928 9.6224 2.85137 9.78906C2.90605 9.95573 2.9334 10.1406 2.9334 10.3437V11.9062C2.9334 12.2109 2.96855 12.4609 3.03887 12.6562C3.11178 12.8516 3.23418 12.9961 3.40605 13.0898C3.58053 13.1862 3.81881 13.2344 4.1209 13.2344V14ZM0.917773 9.46875V8.53125H1.83965V9.46875H0.917773ZM8.48438 13H6.01563V5H8.59375C9.36979 5 10.0339 5.16016 10.5859 5.48047C11.138 5.79818 11.5612 6.25521 11.8555 6.85156C12.1497 7.44531 12.2969 8.15625 12.2969 8.98437C12.2969 9.81771 12.1484 10.5352 11.8516 11.1367C11.5547 11.7357 11.1224 12.1966 10.5547 12.5195C9.98698 12.8398 9.29688 13 8.48438 13ZM6.98438 12.1406H8.42188C9.08333 12.1406 9.63151 12.013 10.0664 11.7578C10.5013 11.5026 10.8255 11.1393 11.0391 10.668C11.2526 10.1966 11.3594 9.63542 11.3594 8.98437C11.3594 8.33854 11.2539 7.78255 11.043 7.31641C10.832 6.84766 10.5169 6.48828 10.0977 6.23828C9.67839 5.98568 9.15625 5.85937 8.53125 5.85937H6.98438V12.1406ZM17.0813 8.98437V9.46875C16.6464 9.46875 16.3417 9.5599 16.1672 9.74219C15.9953 9.92448 15.9094 10.2292 15.9094 10.6562V11.9062C15.9094 12.2656 15.8742 12.5768 15.8039 12.8398C15.7362 13.1029 15.6242 13.3203 15.468 13.4922C15.3117 13.6641 15.1034 13.7917 14.843 13.875C14.5826 13.9583 14.2609 14 13.8781 14V13.2344C14.1802 13.2344 14.4172 13.1862 14.5891 13.0898C14.7635 12.9961 14.8859 12.8516 14.9563 12.6562C15.0292 12.4609 15.0656 12.2109 15.0656 11.9062V10.3437C15.0656 10.1406 15.0917 9.95573 15.1438 9.78906C15.1984 9.6224 15.2974 9.47917 15.4406 9.35938C15.5839 9.23958 15.787 9.14714 16.05 9.08203C16.3156 9.01693 16.6594 8.98437 17.0813 8.98437ZM13.8781 4C14.2609 4 14.5826 4.04167 14.843 4.125C15.1034 4.20833 15.3117 4.33594 15.468 4.50781C15.6242 4.67969 15.7362 4.89714 15.8039 5.16016C15.8742 5.42318 15.9094 5.73437 15.9094 6.09375V7.34375C15.9094 7.77083 15.9953 8.07552 16.1672 8.25781C16.3417 8.4401 16.6464 8.53125 17.0813 8.53125V9.01563C16.6594 9.01563 16.3156 8.98307 16.05 8.91797C15.787 8.85286 15.5839 8.76042 15.4406 8.64062C15.2974 8.52083 15.1984 8.3776 15.1438 8.21094C15.0917 8.04427 15.0656 7.85937 15.0656 7.65625V6.09375C15.0656 5.78906 15.0292 5.53906 14.9563 5.34375C14.8859 5.14583 14.7635 5 14.5891 4.90625C14.4172 4.8125 14.1802 4.76562 13.8781 4.76562V4ZM17.0813 8.53125V9.46875H16.1594V8.53125H17.0813Z" />
  </mask>

  <path d="M0.917773 9.01563V8.53125C1.35267 8.53125 1.65605 8.4401 1.82793 8.25781C2.00241 8.07552 2.08965 7.77083 2.08965 7.34375V6.09375C2.08965 5.73437 2.1235 5.42318 2.19121 5.16016C2.26152 4.89714 2.3748 4.67969 2.53105 4.50781C2.6873 4.33594 2.89564 4.20833 3.15605 4.125C3.41647 4.04167 3.73809 4 4.1209 4V4.76562C3.81881 4.76562 3.58053 4.8125 3.40605 4.90625C3.23418 5 3.11178 5.14583 3.03887 5.34375C2.96855 5.53906 2.9334 5.78906 2.9334 6.09375V7.65625C2.9334 7.85937 2.90605 8.04427 2.85137 8.21094C2.79928 8.3776 2.70163 8.52083 2.5584 8.64062C2.41517 8.76042 2.21074 8.85286 1.94512 8.91797C1.6821 8.98307 1.33965 9.01563 0.917773 9.01563ZM4.1209 14C3.73809 14 3.41647 13.9583 3.15605 13.875C2.89564 13.7917 2.6873 13.6641 2.53105 13.4922C2.3748 13.3203 2.26152 13.1029 2.19121 12.8398C2.1235 12.5768 2.08965 12.2656 2.08965 11.9062V10.6562C2.08965 10.2292 2.00241 9.92448 1.82793 9.74219C1.65605 9.5599 1.35267 9.46875 0.917773 9.46875V8.98437C1.33965 8.98437 1.6821 9.01693 1.94512 9.08203C2.21074 9.14714 2.41517 9.23958 2.5584 9.35938C2.70163 9.47917 2.79928 9.6224 2.85137 9.78906C2.90605 9.95573 2.9334 10.1406 2.9334 10.3437V11.9062C2.9334 12.2109 2.96855 12.4609 3.03887 12.6562C3.11178 12.8516 3.23418 12.9961 3.40605 13.0898C3.58053 13.1862 3.81881 13.2344 4.1209 13.2344V14ZM0.917773 9.46875V8.53125H1.83965V9.46875H0.917773ZM8.48438 13H6.01563V5H8.59375C9.36979 5 10.0339 5.16016 10.5859 5.48047C11.138 5.79818 11.5612 6.25521 11.8555 6.85156C12.1497 7.44531 12.2969 8.15625 12.2969 8.98437C12.2969 9.81771 12.1484 10.5352 11.8516 11.1367C11.5547 11.7357 11.1224 12.1966 10.5547 12.5195C9.98698 12.8398 9.29688 13 8.48438 13ZM6.98438 12.1406H8.42188C9.08333 12.1406 9.63151 12.013 10.0664 11.7578C10.5013 11.5026 10.8255 11.1393 11.0391 10.668C11.2526 10.1966 11.3594 9.63542 11.3594 8.98437C11.3594 8.33854 11.2539 7.78255 11.043 7.31641C10.832 6.84766 10.5169 6.48828 10.0977 6.23828C9.67839 5.98568 9.15625 5.85937 8.53125 5.85937H6.98438V12.1406ZM17.0813 8.98437V9.46875C16.6464 9.46875 16.3417 9.5599 16.1672 9.74219C15.9953 9.92448 15.9094 10.2292 15.9094 10.6562V11.9062C15.9094 12.2656 15.8742 12.5768 15.8039 12.8398C15.7362 13.1029 15.6242 13.3203 15.468 13.4922C15.3117 13.6641 15.1034 13.7917 14.843 13.875C14.5826 13.9583 14.2609 14 13.8781 14V13.2344C14.1802 13.2344 14.4172 13.1862 14.5891 13.0898C14.7635 12.9961 14.8859 12.8516 14.9563 12.6562C15.0292 12.4609 15.0656 12.2109 15.0656 11.9062V10.3437C15.0656 10.1406 15.0917 9.95573 15.1438 9.78906C15.1984 9.6224 15.2974 9.47917 15.4406 9.35938C15.5839 9.23958 15.787 9.14714 16.05 9.08203C16.3156 9.01693 16.6594 8.98437 17.0813 8.98437ZM13.8781 4C14.2609 4 14.5826 4.04167 14.843 4.125C15.1034 4.20833 15.3117 4.33594 15.468 4.50781C15.6242 4.67969 15.7362 4.89714 15.8039 5.16016C15.8742 5.42318 15.9094 5.73437 15.9094 6.09375V7.34375C15.9094 7.77083 15.9953 8.07552 16.1672 8.25781C16.3417 8.4401 16.6464 8.53125 17.0813 8.53125V9.01563C16.6594 9.01563 16.3156 8.98307 16.05 8.91797C15.787 8.85286 15.5839 8.76042 15.4406 8.64062C15.2974 8.52083 15.1984 8.3776 15.1438 8.21094C15.0917 8.04427 15.0656 7.85937 15.0656 7.65625V6.09375C15.0656 5.78906 15.0292 5.53906 14.9563 5.34375C14.8859 5.14583 14.7635 5 14.5891 4.90625C14.4172 4.8125 14.1802 4.76562 13.8781 4.76562V4ZM17.0813 8.53125V9.46875H16.1594V8.53125H17.0813Z" fill="url(#brandGrad)" />

  <path d="M0.917773 9.01562H0.117773V9.81563H0.917773V9.01562ZM0.917773 8.53125V7.73125H0.117773V8.53125H0.917773ZM1.82793 8.25781L1.24998 7.70463L1.24586 7.709L1.82793 8.25781ZM2.19121 5.16016L1.41832 4.95354L1.41647 4.96072L2.19121 5.16016ZM2.53105 4.50781L1.9391 3.96967H1.9391L2.53105 4.50781ZM3.15605 4.125L3.39987 4.88694H3.39988L3.15605 4.125ZM4.1209 4H4.9209V3.2H4.1209V4ZM4.1209 4.76562V5.56562H4.9209V4.76562H4.1209ZM3.40605 4.90625L3.0274 4.20152L3.02297 4.20393L3.40605 4.90625ZM3.03887 5.34375L2.28817 5.06718L2.28616 5.07277L3.03887 5.34375ZM2.85137 8.21094L2.09117 7.9615L2.08778 7.97232L2.85137 8.21094ZM2.5584 8.64062L2.04515 8.02696L2.04515 8.02696L2.5584 8.64062ZM1.94512 8.91797L1.75467 8.14096L1.7529 8.14141L1.94512 8.91797ZM4.1209 14V14.8H4.9209V14H4.1209ZM3.15605 13.875L3.39988 13.1131V13.1131L3.15605 13.875ZM2.53105 13.4922L1.9391 14.0303H1.9391L2.53105 13.4922ZM2.19121 12.8398L1.41644 13.0393L1.41835 13.0464L2.19121 12.8398ZM1.82793 9.74219L1.24584 10.291L1.25 10.2954L1.82793 9.74219ZM0.917773 9.46875H0.117773V10.2687H0.917773V9.46875ZM0.917773 8.98438V8.18437H0.117773V8.98438H0.917773ZM1.94512 9.08203L1.7529 9.8586L1.75468 9.85903L1.94512 9.08203ZM2.5584 9.35938L2.04515 9.97304L2.04515 9.97304L2.5584 9.35938ZM2.85137 9.78906L2.08771 10.0277L2.09124 10.0385L2.85137 9.78906ZM3.03887 12.6562L2.28611 12.9272L2.28939 12.9361L3.03887 12.6562ZM3.40605 13.0898L3.7928 12.3895L3.78914 12.3875L3.40605 13.0898ZM4.1209 13.2344H4.9209V12.4344H4.1209V13.2344ZM0.917773 9.46875H0.117773V10.2687H0.917773V9.46875ZM0.917773 8.53125V7.73125H0.117773V8.53125H0.917773ZM1.83965 8.53125H2.63965V7.73125H1.83965V8.53125ZM1.83965 9.46875V10.2687H2.63965V9.46875H1.83965ZM0.917773 9.01562H1.71777V8.53125H0.917773H0.117773V9.01562H0.917773ZM0.917773 8.53125V9.33125C1.42111 9.33125 2.0074 9.23362 2.41 8.80662L1.82793 8.25781L1.24586 7.709C1.27841 7.67448 1.29363 7.681 1.2413 7.69672C1.18625 7.71326 1.0841 7.73125 0.917773 7.73125V8.53125ZM1.82793 8.25781L2.40586 8.81098C2.79402 8.40544 2.88965 7.84375 2.88965 7.34375H2.08965H1.28965C1.28965 7.50684 1.27254 7.61155 1.25512 7.67237C1.23829 7.73115 1.22734 7.72832 1.25 7.70465L1.82793 8.25781ZM2.08965 7.34375H2.88965V6.09375H2.08965H1.28965V7.34375H2.08965ZM2.08965 6.09375H2.88965C2.88965 5.78139 2.91941 5.5404 2.96595 5.3596L2.19121 5.16016L1.41647 4.96072C1.3276 5.30596 1.28965 5.68736 1.28965 6.09375H2.08965ZM2.19121 5.16016L2.96407 5.36676C3.00708 5.20589 3.0663 5.10833 3.12301 5.04595L2.53105 4.50781L1.9391 3.96967C1.68331 4.25105 1.51597 4.58838 1.41835 4.95355L2.19121 5.16016ZM2.53105 4.50781L3.12301 5.04595C3.16933 4.99499 3.24929 4.93513 3.39987 4.88694L3.15605 4.125L2.91223 3.36306C2.54199 3.48154 2.20528 3.67688 1.9391 3.96967L2.53105 4.50781ZM3.15605 4.125L3.39988 4.88694C3.55696 4.83667 3.79042 4.8 4.1209 4.8V4V3.2C3.68575 3.2 3.27598 3.24666 2.91223 3.36306L3.15605 4.125ZM4.1209 4H3.3209V4.76562H4.1209H4.9209V4H4.1209ZM4.1209 4.76562V3.96562C3.75012 3.96562 3.36367 4.02086 3.0274 4.20154L3.40605 4.90625L3.78471 5.61096C3.7974 5.60414 3.88751 5.56562 4.1209 5.56562V4.76562ZM3.40605 4.90625L3.02297 4.20393C2.66735 4.39791 2.42246 4.70276 2.28819 5.06719L3.03887 5.34375L3.78954 5.62031C3.79367 5.60911 3.79694 5.60284 3.7984 5.60029C3.79979 5.59783 3.79984 5.59819 3.79813 5.60023C3.79638 5.60232 3.79404 5.60467 3.79152 5.60671C3.78904 5.60873 3.7879 5.60924 3.78914 5.60857L3.40605 4.90625ZM3.03887 5.34375L2.28616 5.07277C2.17358 5.3855 2.1334 5.73588 2.1334 6.09375H2.9334H3.7334C3.7334 5.84225 3.76353 5.69263 3.79158 5.61473L3.03887 5.34375ZM2.9334 6.09375H2.1334V7.65625H2.9334H3.7334V6.09375H2.9334ZM2.9334 7.65625H2.1334C2.1334 7.78776 2.11572 7.88693 2.09124 7.96152L2.85137 8.21094L3.61149 8.46035C3.69639 8.20161 3.7334 7.93099 3.7334 7.65625H2.9334ZM2.85137 8.21094L2.08778 7.97232C2.08467 7.98229 2.07923 7.99846 2.04515 8.02696L2.5584 8.64062L3.07164 9.25429C3.32402 9.04321 3.5139 8.77292 3.61495 8.44956L2.85137 8.21094ZM2.5584 8.64062L2.04515 8.02696C2.02891 8.04055 1.95252 8.09248 1.75468 8.14097L1.94512 8.91797L2.13556 9.69497C2.46896 9.61325 2.80143 9.48028 3.07164 9.25429L2.5584 8.64062ZM1.94512 8.91797L1.7529 8.14141C1.57744 8.18483 1.3065 8.21562 0.917773 8.21562V9.01562V9.81563C1.3728 9.81563 1.78675 9.78131 2.13734 9.69453L1.94512 8.91797ZM4.1209 14V13.2C3.79042 13.2 3.55696 13.1633 3.39988 13.1131L3.15605 13.875L2.91223 14.6369C3.27598 14.7533 3.68575 14.8 4.1209 14.8V14ZM3.15605 13.875L3.39988 13.1131C3.24929 13.0649 3.16933 13.005 3.12301 12.954L2.53105 13.4922L1.9391 14.0303C2.20528 14.3231 2.54199 14.5185 2.91223 14.6369L3.15605 13.875ZM2.53105 13.4922L3.12301 12.954C3.0663 12.8917 3.00708 12.7941 2.96407 12.6332L2.19121 12.8398L1.41835 13.0464C1.51597 13.4116 1.68331 13.749 1.9391 14.0303L2.53105 13.4922ZM2.19121 12.8398L2.96595 12.6404C2.91941 12.4596 2.88965 12.2186 2.88965 11.9062H2.08965H1.28965C1.28965 12.3126 1.3276 12.694 1.41647 13.0393L2.19121 12.8398ZM2.08965 11.9062H2.88965V10.6562H2.08965H1.28965V11.9062H2.08965ZM2.08965 10.6562H2.88965C2.88965 10.1562 2.79402 9.59456 2.40586 9.18902L1.82793 9.74219L1.25 10.2954C1.22734 10.2717 1.23829 10.2689 1.25512 10.3276C1.27254 10.3885 1.28965 10.4932 1.28965 10.6562H2.08965ZM1.82793 9.74219L2.41 9.19338C2.0074 8.76638 1.42111 8.66875 0.917773 8.66875V9.46875V10.2687C1.0841 10.2687 1.18625 10.2867 1.2413 10.3033C1.29363 10.319 1.27841 10.3255 1.24586 10.291L1.82793 9.74219ZM0.917773 9.46875H1.71777V8.98438H0.917773H0.117773V9.46875H0.917773ZM0.917773 8.98438V9.78437C1.3065 9.78437 1.57744 9.81517 1.7529 9.85859L1.94512 9.08203L2.13734 8.30547C1.78675 8.21869 1.3728 8.18437 0.917773 8.18437V8.98438ZM1.94512 9.08203L1.75468 9.85903C1.95252 9.90752 2.02891 9.95945 2.04515 9.97304L2.5584 9.35938L3.07164 8.74571C2.80143 8.51972 2.46896 8.38675 2.13556 8.30503L1.94512 9.08203ZM2.5584 9.35938L2.04515 9.97304C2.07923 10.0015 2.08467 10.0177 2.08778 10.0277L2.85137 9.78906L3.61495 9.55044C3.5139 9.22708 3.32402 8.95679 3.07164 8.74571L2.5584 9.35938ZM2.85137 9.78906L2.09124 10.0385C2.11572 10.1131 2.1334 10.2122 2.1334 10.3438H2.9334H3.7334C3.7334 10.069 3.69639 9.79839 3.61149 9.53965L2.85137 9.78906ZM2.9334 10.3438H2.1334V11.9062H2.9334H3.7334V10.3438H2.9334ZM2.9334 11.9062H2.1334C2.1334 12.2641 2.17358 12.6145 2.28616 12.9272L3.03887 12.6562L3.79158 12.3853C3.76353 12.3074 3.7334 12.1578 3.7334 11.9062H2.9334ZM3.03887 12.6562L2.28939 12.9361C2.42489 13.299 2.67059 13.5999 3.02297 13.7922L3.40605 13.0898L3.78914 12.3875C3.7872 12.3865 3.78779 12.3866 3.78986 12.3883C3.79198 12.39 3.79413 12.3921 3.79585 12.3941C3.79754 12.3961 3.79762 12.3966 3.79644 12.3946C3.79521 12.3924 3.7922 12.3868 3.78834 12.3764L3.03887 12.6562ZM3.40605 13.0898L3.01932 13.7902C3.35787 13.9771 3.74762 14.0344 4.1209 14.0344V13.2344V12.4344C3.89001 12.4344 3.8032 12.3953 3.79279 12.3895L3.40605 13.0898ZM4.1209 13.2344H3.3209V14H4.1209H4.9209V13.2344H4.1209ZM0.917773 9.46875H1.71777V8.53125H0.917773H0.117773V9.46875H0.917773ZM0.917773 8.53125V9.33125H1.83965V8.53125V7.73125H0.917773V8.53125ZM1.83965 8.53125H1.03965V9.46875H1.83965H2.63965V8.53125H1.83965ZM1.83965 9.46875V8.66875H0.917773V9.46875V10.2687H1.83965V9.46875ZM6.01562 13H5.21562V13.8H6.01562V13ZM6.01562 5V4.2H5.21562V5H6.01562ZM10.5859 5.48047L10.1845 6.17244L10.1869 6.17385L10.5859 5.48047ZM11.8555 6.85156L11.1381 7.20557L11.1387 7.20682L11.8555 6.85156ZM11.8516 11.1367L12.5683 11.492L12.569 11.4908L11.8516 11.1367ZM10.5547 12.5195L10.9478 13.2163L10.9502 13.2149L10.5547 12.5195ZM6.98438 12.1406H6.18437V12.9406H6.98438V12.1406ZM10.0664 11.7578L9.66151 11.0678L10.0664 11.7578ZM11.043 7.31641L10.3134 7.6447L10.3141 7.64622L11.043 7.31641ZM10.0977 6.23828L9.6848 6.92353L9.68794 6.9254L10.0977 6.23828ZM6.98438 5.85938V5.05937H6.18437V5.85938H6.98438ZM8.48438 13V12.2H6.01562V13V13.8H8.48438V13ZM6.01562 13H6.81563V5H6.01562H5.21562V13H6.01562ZM6.01562 5V5.8H8.59375V5V4.2H6.01562V5ZM8.59375 5V5.8C9.25914 5.8 9.77816 5.9367 10.1845 6.17244L10.5859 5.48047L10.9874 4.7885C10.2895 4.38361 9.48045 4.2 8.59375 4.2V5ZM10.5859 5.48047L10.1869 6.17385C10.5953 6.40888 10.9107 6.74478 11.1381 7.20557L11.8555 6.85156L12.5729 6.49756C12.2117 5.76564 11.6807 5.18747 10.985 4.78708L10.5859 5.48047ZM11.8555 6.85156L11.1387 7.20682C11.3663 7.66605 11.4969 8.24945 11.4969 8.98438H12.2969H13.0969C13.0969 8.06305 12.9332 7.22458 12.5723 6.49631L11.8555 6.85156ZM12.2969 8.98438H11.4969C11.4969 9.72401 11.3651 10.3146 11.1342 10.7827L11.8516 11.1367L12.569 11.4908C12.9317 10.7557 13.0969 9.91141 13.0969 8.98438H12.2969ZM11.8516 11.1367L11.1348 10.7814C10.9069 11.2411 10.5849 11.582 10.1592 11.8242L10.5547 12.5195L10.9502 13.2149C11.6599 12.8112 12.2024 12.2302 12.5683 11.492L11.8516 11.1367ZM10.5547 12.5195L10.1616 11.8228C9.73997 12.0607 9.19264 12.2 8.48438 12.2V13V13.8C9.40111 13.8 10.234 13.619 10.9478 13.2163L10.5547 12.5195ZM6.98438 12.1406V12.9406H8.42188V12.1406V11.3406H6.98438V12.1406ZM8.42188 12.1406V12.9406C9.18247 12.9406 9.88107 12.7941 10.4713 12.4478L10.0664 11.7578L9.66151 11.0678C9.38195 11.2319 8.98419 11.3406 8.42188 11.3406V12.1406ZM10.0664 11.7578L10.4713 12.4478C11.0526 12.1066 11.488 11.6157 11.7678 10.9981L11.0391 10.668L10.3104 10.3378C10.1631 10.6629 9.94996 10.8986 9.66151 11.0678L10.0664 11.7578ZM11.0391 10.668L11.7678 10.9981C12.0388 10.3999 12.1594 9.72081 12.1594 8.98438H11.3594H10.5594C10.5594 9.55002 10.4664 9.99333 10.3104 10.3378L11.0391 10.668ZM11.3594 8.98438H12.1594C12.1594 8.25366 12.0402 7.57978 11.7718 6.98659L11.043 7.31641L10.3141 7.64622C10.4676 7.98532 10.5594 8.42343 10.5594 8.98438H11.3594ZM11.3594 8.98438H12.1594C12.1594 8.25366 12.0402 7.57978 11.7718 6.98659L11.043 7.31641L10.3141 7.64622C10.4676 7.98532 10.5594 8.42343 10.5594 8.98438H11.3594ZM11.043 7.31641L11.7725 6.98811C11.498 6.3782 11.0752 5.88975 10.5074 5.55116L10.0977 6.23828L9.68794 6.9254C9.95863 7.08681 10.166 7.31711 10.3134 7.6447L11.043 7.31641ZM10.0977 6.23828L10.5105 5.55304C9.93653 5.20723 9.26207 5.05937 8.53125 5.05937V5.85938V6.65937C9.05043 6.65937 9.42024 6.76413 9.68481 6.92352L10.0977 6.23828ZM8.53125 5.85938V5.05937H6.98438V5.85938V6.65937H8.53125V5.85938ZM6.98438 5.85938H6.18437V12.1406H6.98438H7.78438V5.85938H6.98438ZM17.0812 8.98438H17.8813V8.18437H17.0812V8.98438ZM17.0812 9.46875V10.2687H17.8813V9.46875H17.0812ZM16.1672 9.74219L15.5892 9.18901L15.5851 9.19338L16.1672 9.74219ZM15.8039 12.8398L15.031 12.6332L15.0292 12.6404L15.8039 12.8398ZM15.468 13.4922L16.0599 14.0303V14.0303L15.468 13.4922ZM14.843 13.875L14.5991 13.1131V13.1131L14.843 13.875ZM13.8781 14H13.0781V14.8H13.8781V14ZM13.8781 13.2344V12.4344H13.0781V13.2344H13.8781ZM14.5891 13.0898L14.2104 12.3851L14.2041 12.3885L14.1979 12.392L14.5891 13.0898ZM14.9563 12.6562L14.2067 12.3764L14.2035 12.3853L14.9563 12.6562ZM15.1438 9.78906L14.3835 9.53962L14.3802 9.55044L15.1438 9.78906ZM15.4406 9.35938L15.9539 9.97304L15.9539 9.97304L15.4406 9.35938ZM16.05 9.08203L15.8596 8.30503L15.8578 8.30547L16.05 9.08203ZM13.8781 4V3.2H13.0781V4H13.8781ZM14.843 4.125L14.5991 4.88694H14.5991L14.843 4.125ZM15.468 4.50781L16.0599 3.96967V3.96967L15.468 4.50781ZM15.8039 5.16016L15.0291 5.3596L15.031 5.36676L15.8039 5.16016ZM16.1672 8.25781L15.5851 8.80664L15.5893 8.81098L16.1672 8.25781ZM17.0812 8.53125H17.8813V7.73125H17.0812V8.53125ZM17.0812 9.01562V9.81563H17.8813V9.01562H17.0812ZM16.05 8.91797L15.8578 9.69454L15.8596 9.69497L16.05 8.91797ZM15.4406 8.64062L15.9539 8.02696L15.9539 8.02696L15.4406 8.64062ZM15.1438 8.21094L14.3801 8.44958L14.3836 8.46035L15.1438 8.21094ZM14.9563 5.34375L14.2023 5.6116L14.2068 5.62355L14.9563 5.34375ZM14.5891 4.90625L14.206 5.60858L14.2104 5.61096L14.5891 4.90625ZM13.8781 4.76562H13.0781V5.56562H13.8781V4.76562ZM17.0812 8.53125H17.8813V7.73125H17.0812V8.53125ZM17.0812 9.46875V10.2687H17.8813V9.46875H17.0812ZM16.1594 9.46875H15.3594V10.2687H16.1594V9.46875ZM16.1594 8.53125V7.73125H15.3594V8.53125H16.1594ZM17.0812 8.98438H16.2812V9.46875H17.0812H17.8813V8.98438H17.0812ZM17.0812 9.46875V8.66875C16.5762 8.66875 15.9931 8.76711 15.5893 9.18902L16.1672 9.74219L16.7451 10.2954C16.7147 10.3271 16.7022 10.3196 16.7558 10.3036C16.8122 10.2867 16.9151 10.2687 17.0812 10.2687V9.46875ZM16.1672 9.74219L15.5851 9.19338C15.2028 9.59889 15.1094 10.1586 15.1094 10.6562H15.9094H16.7094C16.7094 10.4924 16.7263 10.3865 16.7438 10.3246C16.7608 10.2644 16.772 10.2669 16.7493 10.291L16.1672 9.74219ZM15.9094 10.6562H15.1094V11.9062H15.9094H16.7094V10.6562H15.9094ZM15.9094 11.9062H15.1094C15.1094 12.2167 15.0787 12.4551 15.031 12.6332L15.8039 12.8398L16.5768 13.0464C16.6698 12.6985 16.7094 12.3146 16.7094 11.9062H15.9094ZM15.8039 12.8398L15.0292 12.6404C14.9884 12.7987 14.9309 12.8936 14.876 12.954L15.468 13.4922L16.0599 14.0303C16.3175 13.747 16.484 13.407 16.5786 13.0393L15.8039 12.8398ZM15.468 13.4922L14.876 12.954C14.8297 13.005 14.7497 13.0649 14.5991 13.1131L14.843 13.875L15.0868 14.6369C15.457 14.5185 15.7937 14.3231 16.0599 14.0303L15.468 13.4922ZM14.843 13.875L14.5991 13.1131C14.4421 13.1633 14.2086 13.2 13.8781 13.2V14V14.8C14.3133 14.8 14.723 14.7533 15.0868 14.6369L14.843 13.875ZM13.8781 14H14.6781V13.2344H13.8781H13.0781V14H13.8781ZM13.8781 13.2344V14.0344C14.2503 14.0344 14.6417 13.9775 14.9803 13.7877L14.5891 13.0898L14.1979 12.392C14.1985 12.3916 14.178 12.4031 14.123 12.4143C14.0681 12.4255 13.9882 12.4344 13.8781 12.4344V13.2344ZM14.5891 13.0898L14.9677 13.7946C15.3251 13.6025 15.5753 13.2986 15.709 12.9272L14.9563 12.6562L14.2035 12.3853C14.2004 12.394 14.1982 12.398 14.1978 12.3986C14.1976 12.3991 14.1986 12.3972 14.2012 12.3941C14.2039 12.391 14.2068 12.3882 14.2094 12.3861C14.2119 12.3841 14.2127 12.3839 14.2104 12.3851L14.5891 13.0898ZM14.9563 12.6562L15.7057 12.9361C15.8237 12.6201 15.8656 12.2664 15.8656 11.9062H15.0656H14.2656C14.2656 12.1555 14.2347 12.3018 14.2068 12.3764L14.9563 12.6562ZM15.0656 11.9062H15.8656V10.3438H15.0656H14.2656V11.9062H15.0656ZM15.0656 10.3438H15.8656C15.8656 10.2087 15.883 10.1057 15.9073 10.0277L15.1438 9.78906L14.3802 9.55044C14.3004 9.80576 14.2656 10.0726 14.2656 10.3438H15.0656ZM15.1438 9.78906L15.9039 10.0385C15.9089 10.0232 15.9176 10.0033 15.9539 9.97304L15.4406 9.35938L14.9274 8.74571C14.6772 8.955 14.488 9.2216 14.3836 9.53965L15.1438 9.78906ZM15.4406 9.35938L15.9539 9.97304C15.9715 9.95831 16.0479 9.90669 16.2422 9.85859L16.05 9.08203L15.8578 8.30547C15.526 8.38758 15.1962 8.52086 14.9274 8.74571L15.4406 9.35938ZM16.05 9.08203L16.2404 9.85903C16.4197 9.81509 16.6929 9.78437 17.0812 9.78437V8.98438V8.18437C16.6258 8.18437 16.2115 8.21876 15.8596 8.30503L16.05 9.08203ZM13.8781 4V4.8C14.2086 4.8 14.4421 4.83667 14.5991 4.88694L14.843 4.125L15.0868 3.36306C14.723 3.24666 14.3133 3.2 13.8781 3.2V4ZM14.843 4.125L14.5991 4.88694C14.7497 4.93513 14.8297 4.99499 14.876 5.04595L15.468 4.50781L16.0599 3.96967C15.7937 3.67688 15.457 3.48154 15.0868 3.36306L14.843 4.125ZM15.468 4.50781L14.876 5.04595C14.9309 5.10638 14.9884 5.20129 15.0292 5.35959L15.8039 5.16016L16.5786 4.96072C16.484 4.59298 16.3175 4.253 16.0599 3.96967L15.468 4.50781ZM15.8039 5.16016L15.031 5.36676C15.0787 5.54486 15.1094 5.7833 15.1094 6.09375H15.9094H16.7094C16.7094 5.68545 16.6698 5.30149 16.5768 4.95355L15.8039 5.16016ZM15.9094 6.09375H15.1094V7.34375H15.9094H16.7094V6.09375H15.9094ZM15.9094 7.34375H15.1094C15.1094 7.84142 15.2028 8.40111 15.5851 8.80662L16.1672 8.25781L16.7493 7.709C16.772 7.73314 16.7608 7.73562 16.7438 7.67541C16.7263 7.61345 16.7094 7.50764 16.7094 7.34375H15.9094ZM16.1672 8.25781L15.5893 8.81098C15.9931 9.23289 16.5762 9.33125 17.0812 9.33125V8.53125V7.73125C16.9151 7.73125 16.8122 7.7133 16.7558 7.69645C16.7022 7.68041 16.7147 7.67286 16.7451 7.70465L16.1672 8.25781ZM17.0812 8.53125H16.2812V9.01562H17.0812H17.8813V8.53125H17.0812ZM17.0812 9.01562V8.21562C16.6929 8.21562 16.4197 8.18491 16.2404 8.14097L16.05 8.91797L15.8596 9.69497C16.2115 9.78124 16.6258 9.81563 17.0812 9.81563V9.01562ZM16.05 8.91797L16.2422 8.14141C16.0479 8.09331 15.9715 8.04169 15.9539 8.02696L15.4406 8.64062L14.9274 9.25429C15.1962 9.47914 15.526 9.61242 15.8578 9.69453L16.05 8.91797ZM15.4406 8.64062L15.9539 8.02696C15.9176 7.99666 15.9089 7.97681 15.9039 7.96152L15.1438 8.21094L14.3836 8.46035C14.488 8.7784 14.6772 9.045 14.9274 9.25429L15.4406 8.64062ZM15.1438 8.21094L15.9073 7.97232C15.883 7.89431 15.8656 7.79135 15.8656 7.65625H15.0656H14.2656C14.2656 7.9274 14.3004 8.19424 14.3802 8.44956L15.1438 8.21094ZM15.0656 7.65625H15.8656V6.09375H15.0656H14.2656V7.65625H15.0656ZM15.0656 6.09375H15.8656C15.8656 5.73364 15.8237 5.3799 15.7057 5.06395L14.9563 5.34375L14.2068 5.62355C14.2347 5.69822 14.2656 5.84449 14.2656 6.09375H15.0656ZM14.9563 5.34375L15.7101 5.07594C15.5777 4.70322 15.3284 4.39533 14.9677 4.20154L14.5891 4.90625L14.2104 5.61096C14.212 5.61181 14.2107 5.61127 14.2077 5.60889C14.2047 5.60646 14.2016 5.60342 14.1989 5.60023C14.1963 5.5971 14.1954 5.59539 14.1959 5.59628C14.1965 5.59729 14.199 5.60194 14.2024 5.61156L14.9563 5.34375ZM14.5891 4.90625L14.9721 4.20393C14.6358 4.02049 14.2478 3.96562 13.8781 3.96562V4.76562V5.56562C13.9894 5.56562 14.0706 5.57439 14.1272 5.58558C14.1549 5.59106 14.1747 5.59673 14.1878 5.60123C14.2008 5.60571 14.2062 5.60869 14.206 5.60857L14.5891 4.90625ZM13.8781 4.76562H14.6781V4H13.8781H13.0781V4.76562H13.8781ZM17.0812 8.53125H16.2812V9.46875H17.0812H17.8813V8.53125H17.0812ZM17.0812 9.46875V8.66875H16.1594V9.46875V10.2687H17.0812V9.46875ZM16.1594 9.46875H16.9594V8.53125H16.1594H15.3594V9.46875H16.1594ZM16.1594 8.53125V9.33125H17.0812V8.53125V7.73125H16.1594V8.53125Z" fill="url(#brandGrad)" mask="url(#path-2-outside-1_1413_3)" />
</svg>